# xmcd
# 
# Track frame offsets:
#     150
#     33220
#     69277
#     104602
#     137882
#     173502
#     210645
#     250905
#     280657
#     309760
# 
# Disc length: 4561
# 
# Revision: 6
# Processed by: cddbd v1.5.2PL0 Copyright (c) Steve Scherf et al.
# Submitted via: BonkEnc v1.0.6
# 
DISCID=8111cf0a
DTITLE=Stan Getz - Bossas and Ballads: The Lost Sessions
DYEAR=1989
DGENRE=Jazz
TTITLE0=Sunshower
TTITLE1=Yours and Mine
TTITLE2=Joanne Julia
TTITLE3=Soul Eyes
TTITLE4=Spiral
TTITLE5=Beatrice
TTITLE6=The Wind
TTITLE7=El Sueno
TTITLE8=Feijoada
TTITLE9=Soul Eyes (alt.take)
EXTD=
EXTT0=
EXTT1=
EXTT2=
EXTT3=
EXTT4=
EXTT5=
EXTT6=
EXTT7=
EXTT8=
EXTT9=
PLAYORDER=
